<svg width="150" height="150" viewBox="0 0 150 150" fill="none" xmlns="http://www.w3.org/2000/svg">
<g clip-path="url(#clip0)">
<path d="M89.959 0H135.109L97.5747 47.9033H52.4247L89.959 0Z" fill="#0E6A8E"/>
<path d="M89.959 0H109.04L71.506 47.9033H52.4247L89.959 0Z" fill="#E52E40"/>
<path d="M104.553 0H120.515L82.981 47.9033H67.0183L104.553 0Z" fill="#EAEAE4"/>
<path d="M75 150C100.827 150 121.763 129.063 121.763 103.237C121.763 77.4098 100.827 56.4731 75 56.4731C49.1733 56.4731 28.2366 77.4098 28.2366 103.237C28.2366 129.063 49.1733 150 75 150Z" fill="#F9AC30"/>
<path d="M52.4253 62.2757V47.9032H97.5753V62.2757L105.228 67.5561V44.0765C105.228 41.9642 103.517 40.25 101.402 40.25H48.5988C46.4865 40.25 44.7723 41.9642 44.7723 44.0765V67.5591L52.4253 62.2757Z" fill="#F9AC30"/>
<path d="M75 138.245C94.3345 138.245 110.008 122.571 110.008 103.237C110.008 83.902 94.3345 68.2283 75 68.2283C55.6654 68.2283 39.9917 83.902 39.9917 103.237C39.9917 122.571 55.6654 138.245 75 138.245Z" fill="#DD8D19"/>
<path d="M60.041 0H14.891L52.4253 47.9033H97.5753L60.041 0Z" fill="#E52E40"/>
<path d="M60.041 0H40.9594L78.4939 47.9033H97.5753L60.041 0Z" fill="#0E6A8E"/>
<path d="M45.4473 0H29.4846L67.0189 47.9033H82.9816L45.4473 0Z" fill="#EAEAE4"/>
<path d="M84.0062 112.854V111.574C84.0062 106.183 80.7047 104.229 75.7858 104.229C74.1015 104.229 73.4951 102.814 73.4951 101.4C73.4951 99.9171 74.1015 98.5021 75.7858 98.5021C79.8959 98.5021 82.7933 97.2218 82.7933 91.0902C82.7933 86.1716 80.4349 84.1501 76.0556 84.1501C70.5979 84.1501 69.0478 86.9125 69.0478 89.6752C69.0478 91.4272 68.2392 92.5727 65.679 92.5727C62.5123 92.5727 61.9729 91.8312 61.9729 89.2709C61.9729 84.8913 65.0051 77.8838 76.1227 77.8838C84.0059 77.8838 89.6661 80.9834 89.6661 89.8776C89.6661 95.4701 87.5098 99.5802 84.2757 101.13C88.251 102.68 91.1485 105.847 91.1485 111.574V112.854C91.1485 123.568 84.2757 127.543 75.7858 127.543C65.2747 127.543 60.8948 121.007 60.8948 115.684C60.8948 113.326 61.7705 112.652 64.1962 112.652C67.1611 112.652 67.9023 113.528 67.9023 115.347C67.9023 118.312 70.3955 121.209 75.8532 121.209C81.3783 121.209 84.0062 118.716 84.0062 112.854Z" fill="#F9AC30"/>
</g>
<defs>
<clipPath id="clip0">
<rect width="150" height="150" fill="white"/>
</clipPath>
</defs>
</svg>
