<svg width="150" height="150" viewBox="0 0 150 150" fill="none" xmlns="http://www.w3.org/2000/svg">
<g clip-path="url(#clip0)">
<path d="M89.9591 0H135.109L97.5748 47.9033H52.4248L89.9591 0Z" fill="#0E6A8E"/>
<path d="M89.9591 0H109.04L71.5062 47.9033H52.4248L89.9591 0Z" fill="#E52E40"/>
<path d="M104.553 0H120.515L82.981 47.9033H67.0183L104.553 0Z" fill="#EAEAE4"/>
<path d="M75 150C100.827 150 121.763 129.063 121.763 103.237C121.763 77.4098 100.827 56.4731 75 56.4731C49.1733 56.4731 28.2366 77.4098 28.2366 103.237C28.2366 129.063 49.1733 150 75 150Z" fill="#F9AC30"/>
<path d="M52.4251 62.2757V47.9032H97.5751V62.2757L105.228 67.5561V44.0765C105.228 41.9642 103.517 40.25 101.402 40.25H48.5987C46.4864 40.25 44.7722 41.9642 44.7722 44.0765V67.5591L52.4251 62.2757Z" fill="#F9AC30"/>
<path d="M75 138.245C94.3345 138.245 110.008 122.571 110.008 103.237C110.008 83.902 94.3345 68.2283 75 68.2283C55.6654 68.2283 39.9917 83.902 39.9917 103.237C39.9917 122.571 55.6654 138.245 75 138.245Z" fill="#DD8D19"/>
<path d="M60.0411 0H14.8911L52.4254 47.9033H97.5754L60.0411 0Z" fill="#E52E40"/>
<path d="M60.0411 0H40.9595L78.494 47.9033H97.5754L60.0411 0Z" fill="#0E6A8E"/>
<path d="M45.4473 0H29.4846L67.0189 47.9033H82.9816L45.4473 0Z" fill="#EAEAE4"/>
<path d="M72.8176 87.7819L70.4592 90.7467C69.9875 91.2184 69.3811 91.4206 68.9771 91.4206C67.5617 91.4206 66.5513 89.9384 66.5513 88.5231C66.5513 87.5126 67.0903 86.3671 67.9666 85.7607L74.9741 79.0227C75.4458 78.5513 75.9849 78.2815 76.7935 78.2815C78.2756 78.2815 79.9602 79.1572 79.9602 80.6399V125.245C79.9602 126.795 78.1408 127.604 76.3889 127.604C74.5695 127.604 72.8176 126.795 72.8176 125.245V87.7819Z" fill="#F9AC30"/>
</g>
<defs>
<clipPath id="clip0">
<rect width="150" height="150" fill="white"/>
</clipPath>
</defs>
</svg>
