<svg width="150" height="150" viewBox="0 0 150 150" fill="none" xmlns="http://www.w3.org/2000/svg">
<g clip-path="url(#clip0)">
<path d="M89.9591 0H135.109L97.5748 47.9033H52.4248L89.9591 0Z" fill="#0E6A8E"/>
<path d="M89.9591 0H109.04L71.5062 47.9033H52.4248L89.9591 0Z" fill="#E52E40"/>
<path d="M104.553 0H120.515L82.981 47.9033H67.0183L104.553 0Z" fill="#EAEAE4"/>
<path d="M74.9999 150C100.827 150 121.763 129.063 121.763 103.237C121.763 77.4098 100.827 56.4731 74.9999 56.4731C49.1733 56.4731 28.2366 77.4098 28.2366 103.237C28.2366 129.063 49.1733 150 74.9999 150Z" fill="#F9AC30"/>
<path d="M52.4253 62.2757V47.9032H97.5753V62.2757L105.228 67.5561V44.0765C105.228 41.9642 103.517 40.25 101.402 40.25H48.5988C46.4865 40.25 44.7723 41.9642 44.7723 44.0765V67.5591L52.4253 62.2757Z" fill="#F9AC30"/>
<path d="M75.0001 138.245C94.3347 138.245 110.008 122.571 110.008 103.237C110.008 83.902 94.3347 68.2283 75.0001 68.2283C55.6656 68.2283 39.9918 83.902 39.9918 103.237C39.9918 122.571 55.6656 138.245 75.0001 138.245Z" fill="#DD8D19"/>
<path d="M60.0411 0H14.8911L52.4254 47.9033H97.5754L60.0411 0Z" fill="#E52E40"/>
<path d="M60.041 0H40.9594L78.4939 47.9033H97.5753L60.041 0Z" fill="#0E6A8E"/>
<path d="M45.4473 0H29.4846L67.0189 47.9033H82.9816L45.4473 0Z" fill="#EAEAE4"/>
<path d="M75.9608 76.9509C83.7767 76.9509 90.3802 82.2742 90.3802 90.3598C90.3802 104.847 68.549 109.563 68.549 117.312V119.872H88.3584C89.5713 119.872 90.7168 121.287 90.7168 122.972C90.7168 124.656 89.5713 126.206 88.3584 126.206H64.3713C63.0236 126.206 61.2046 125.263 61.2046 123.848V117.311C61.2046 106.396 83.2382 100.939 83.2382 90.5617C83.2382 87.2602 81.0822 83.4868 75.9614 83.4868C72.1883 83.4868 69.1561 85.5753 69.1561 90.1574C69.1561 91.505 67.7407 92.8527 65.3829 92.8527C63.4962 92.8527 62.1488 91.9093 62.1488 88.8774C62.1477 81.6677 68.6164 76.9509 75.9608 76.9509Z" fill="#F9AC30"/>
</g>
<defs>
<clipPath id="clip0">
<rect width="150" height="150" fill="white"/>
</clipPath>
</defs>
</svg>
